<?xml version="1.0" encoding="UTF-8"?>
<svg xmlns="http://www.w3.org/2000/svg" viewBox="0 0 1000 900" width="1000" height="900" aria-hidden="true">
  <!-- ??: johan/world.geo.json (JPN) / ?????????????35% -->
  <g class="japan-outline" fill="currentColor">
    <path class="japan-land" d="M 396.59 600.98 L 401.26 613.48 L 380.73 635.54 L 365.76 623.84 L 347.07 632.32 L 337.39 653.64 L 313.63 643.26 L 313.93 625.97 L 334.10 604.22 L 354.83 608.43 L 369.82 593.11 Z" />
    <path class="japan-land" d="M 627.68 491.87 L 613.95 520.96 L 620.30 539.23 L 601.32 564.92 L 554.73 582.08 L 490.63 584.31 L 438.69 625.93 L 414.19 611.92 L 412.67 584.67 L 349.26 592.71 L 306.11 609.88 L 263.43 610.58 L 300.39 637.40 L 276.06 699.37 L 252.49 714.71 L 234.85 700.54 L 243.79 667.68 L 220.71 657.08 L 205.90 632.08 L 240.37 620.85 L 259.50 597.93 L 296.17 579.08 L 322.91 554.16 L 395.49 543.29 L 434.48 550.74 L 472.63 485.93 L 496.94 503.34 L 550.43 466.88 L 571.17 452.72 L 594.08 408.14 L 587.83 367.14 L 603.23 344.11 L 642.00 337.42 L 661.88 387.99 L 660.80 417.54 L 627.06 454.25 Z" />
    <path class="japan-land" d="M 734.65 235.51 L 760.29 243.28 L 786.08 227.83 L 794.19 268.76 L 740.10 278.74 L 708.17 314.94 L 650.84 290.02 L 631.00 329.91 L 590.44 330.46 L 585.43 294.21 L 603.46 266.16 L 642.42 264.14 L 653.04 213.71 L 663.82 185.29 L 706.67 223.25 Z" />
  </g>
</svg>
